PathFileType	4	(X/Y/Z)	/Users/visionmauri/4_1_1_f_Sports2D/4_1_1_f_Sports2D_px_person00.trc
DataRate	CameraRate	NumFrames	NumMarkers	Units	OrigDataRate	OrigDataStartFrame	OrigNumFrames
30.0	30.0	4	22	m	30.0	221	355
Frame#	Time	Hip			RHip			RKnee			RAnkle			RBigToe			RSmallToe			RHeel			LHip			LKnee			LAnkle			LBigToe			LSmallToe			LHeel			Neck			Head			Nose			RShoulder			RElbow			RWrist			LShoulder			LElbow			LWrist			
		X1	Y1	Z1	X2	Y2	Z2	X3	Y3	Z3	X4	Y4	Z4	X5	Y5	Z5	X6	Y6	Z6	X7	Y7	Z7	X8	Y8	Z8	X9	Y9	Z9	X10	Y10	Z10	X11	Y11	Z11	X12	Y12	Z12	X13	Y13	Z13	X14	Y14	Z14	X15	Y15	Z15	X16	Y16	Z16	X17	Y17	Z17	X18	Y18	Z18	X19	Y19	Z19	X20	Y20	Z20	X21	Y21	Z21	X22	Y22	Z22
221	7.387476459510358	605.3333566042259	858.3734529648	0.0	556.097960840495	861.0472585044533	0.0	538.140981245543	1042.5135824896415	0.0	526.6221750707983	1236.174317994228	0.0	521.204809984564	1304.5443680386081	0.0	492.3123898159838	1293.488103990644	0.0	538.9944767614832	1264.8396379828162	0.0	656.7816452406223	860.208629418514	0.0	655.4614663547956	1049.6412773621355	0.0	644.7147585513717	1234.657504717723	0.0	684.7159182991794	1294.7408971445695	0.0	700.7989173293179	1284.456537464359	0.0	629.2506414747144	1261.131042915494	0.0	592.9506927499936	580.9001377922605	0.0	584.0919810282298	443.8655711692589	0.0	573.5890907951934	527.3578142770748	0.0	506.72912375718016	620.7259414669645	0.0	449.2171287534299	737.5977603322386	0.0	397.0462330466899	837.7049162007523	0.0	686.8965011342258	605.9271232469491	0.0	728.5350345207919	729.9980416325512	0.0	756.2856385077945	837.5379180961327	0.0
222	7.42090395480226	603.8875522770543	858.3759696890946	0.0	554.1535942329409	860.7879824161814	0.0	536.9688269223763	1043.1458712061167	0.0	526.6536074496762	1237.0584682909046	0.0	521.4089547065669	1304.9350599336685	0.0	492.52659972254355	1294.2648158390236	0.0	539.6245285327263	1264.3712592504123	0.0	654.8350395011286	858.8909500471099	0.0	655.8513457168907	1049.6712359113033	0.0	644.9383035762552	1234.640173564605	0.0	685.3829713097961	1295.1131154907798	0.0	701.2323125253304	1284.444806153967	0.0	628.9543353552734	1261.2018746289114	0.0	587.660344744706	579.8592885740837	0.0	576.3414635516053	442.7388447113347	0.0	567.6519995824566	526.9526233334628	0.0	501.37587817564565	621.2648472387913	0.0	445.07129026560636	738.3685006016714	0.0	395.73699961300616	838.1686294030948	0.0	682.9626184747649	604.0447335867372	0.0	725.9283500073917	728.899173807675	0.0	756.423378844542	837.421570767963	0.0
223	7.454331450094163	602.5055727088937	858.8793225442412	0.0	552.867251178866	860.7678815774697	0.0	535.8333225460541	1043.8802499882045	0.0	526.8892545324	1237.493332189381	0.0	521.3538332693703	1305.1423422589185	0.0	492.44462629117066	1294.9599395889659	0.0	539.6996831368033	1263.7080032515069	0.0	653.327008025911	857.9092456994098	0.0	656.6969896055376	1049.2946707403996	0.0	645.0391005428178	1234.7518385652897	0.0	686.2829818313397	1295.9300379969495	0.0	701.8722718488755	1284.762298936792	0.0	628.2138739001512	1261.8048245438326	0.0	582.6864827619352	579.8332312863508	0.0	568.1002834532419	441.87748659545	0.0	559.6761981607372	526.8565257555751	0.0	496.05308875043636	621.1959381144918	0.0	441.0161160329243	738.8324220058034	0.0	395.1253436089936	838.204777428635	0.0	678.1995813077533	602.0319560772194	0.0	724.4022080301345	727.9656402722785	0.0	756.295155638064	837.4024028755024	0.0
224	7.487758945386064	600.4916624446339	859.8628713623683	0.0	550.7979813361231	861.501490094256	0.0	534.3608234564721	1045.3163448577181	0.0	526.8354449613487	1237.7089089740546	0.0	521.0825436766373	1305.9771559091537	0.0	492.113932375223	1295.4336568670137	0.0	539.3702716574032	1263.637271782923	0.0	652.213524690361	857.8264444417933	0.0	658.3259101003877	1049.6083394079612	0.0	645.4150689909931	1234.5955246224537	0.0	686.2482901553442	1296.635927546195	0.0	702.1398519267225	1285.223467769922	0.0	627.9104387820125	1261.7537857039	0.0	578.2535620360297	579.3557720459637	0.0	561.1569634725339	441.19390352038226	0.0	551.3625893929344	526.095924028083	0.0	490.7407125345487	620.7517085706836	0.0	437.64381929217797	738.903614881421	0.0	394.19775256818383	837.4999171561133	0.0	673.8711906598045	600.3182866308262	0.0	722.6064831982397	727.8560825507459	0.0	755.8849567017721	837.5323305907848	0.0
